<svg width="32" height="32" viewBox="0 0 32 32" fill="none" xmlns="http://www.w3.org/2000/svg">
<path d="M16.0001 21.3337C18.9456 21.3337 21.3334 18.9458 21.3334 16.0003C21.3334 13.0548 18.9456 10.667 16.0001 10.667C13.0546 10.667 10.6667 13.0548 10.6667 16.0003C10.6667 18.9458 13.0546 21.3337 16.0001 21.3337Z" stroke="black" stroke-width="2" stroke-linecap="round" stroke-linejoin="round"/>
<path d="M4 21.3333V10.6667C4 6.98477 6.98477 4 10.6667 4H21.3333C25.0152 4 28 6.98477 28 10.6667V21.3333C28 25.0152 25.0152 28 21.3333 28H10.6667C6.98477 28 4 25.0152 4 21.3333Z" stroke="black" stroke-width="2"/>
<path d="M23.3333 8.68033L23.3466 8.66551" stroke="black" stroke-width="2" stroke-linecap="round" stroke-linejoin="round"/>
</svg>
