<svg width="32" height="32" viewBox="0 0 32 32" fill="none" xmlns="http://www.w3.org/2000/svg">
<path d="M18.6667 16.0003L14 18.667V13.3337L18.6667 16.0003Z" fill="black" stroke="black" stroke-width="1.5" stroke-linecap="round" stroke-linejoin="round"/>
<path d="M2.66675 18.9742V13.0257C2.66675 10.1355 2.66675 8.69048 3.56586 7.76026C4.46497 6.83004 5.89429 6.78141 8.75293 6.68415C11.1403 6.60292 13.8235 6.5332 16.0001 6.5332C18.1767 6.5332 20.8599 6.60292 23.2472 6.68415C26.1059 6.78141 27.5352 6.83004 28.4343 7.76026C29.3334 8.69048 29.3334 10.1355 29.3334 13.0257V18.9742C29.3334 21.8643 29.3334 23.3093 28.4343 24.2395C27.5352 25.1697 26.1059 25.2184 23.2473 25.3157C20.8599 25.3969 18.1767 25.4667 16.0001 25.4667C13.8235 25.4667 11.1402 25.3969 8.75283 25.3157C5.89424 25.2184 4.46494 25.1697 3.56585 24.2395C2.66675 23.3093 2.66675 21.8643 2.66675 18.9742Z" stroke="black" stroke-width="1.5"/>
</svg>
